<?xml version="1.0" standalone="no"?>
<!DOCTYPE svg PUBLIC "-//W3C//DTD SVG 20010904//EN"
 "http://www.w3.org/TR/2001/REC-SVG-20010904/DTD/svg10.dtd">
<svg version="1.0" xmlns="http://www.w3.org/2000/svg"
 width="384.000000pt" height="384.000000pt" viewBox="0 0 384.000000 384.000000"
 preserveAspectRatio="xMidYMid meet">
<metadata>
Created by potrace 1.14, written by Peter Selinger 2001-2017
</metadata>
<g transform="translate(0.000000,384.000000) scale(0.100000,-0.100000)"
fill="#000000" stroke="none">
<path d="M1610 3400 c-16 -17 -39 -58 -52 -92 -13 -34 -39 -78 -58 -99 -31
-33 -40 -37 -75 -34 -22 1 -79 17 -127 34 -136 49 -158 32 -165 -123 -7 -154
-36 -186 -176 -187 -89 -1 -144 -14 -156 -38 -13 -24 -4 -74 26 -146 30 -74
37 -136 16 -164 -17 -25 -111 -81 -135 -81 -10 0 -18 -4 -18 -10 0 -5 -7 -10
-15 -10 -8 0 -28 -14 -45 -30 -24 -23 -30 -36 -24 -53 10 -34 14 -40 81 -111
102 -110 101 -142 -7 -261 -39 -42 -71 -83 -71 -91 -1 -8 -2 -20 -3 -26 -4
-25 30 -51 119 -93 94 -44 118 -64 129 -108 7 -31 -12 -115 -33 -139 -8 -10
-11 -18 -7 -18 4 0 2 -8 -3 -17 -5 -10 -12 -35 -15 -56 -5 -29 -2 -41 14 -57
11 -11 28 -20 38 -21 9 0 26 -2 36 -4 35 -7 126 -9 131 -3 3 3 23 -3 44 -13
53 -25 72 -70 76 -177 1 -48 3 -87 4 -87 2 0 4 -8 6 -18 11 -59 59 -58 220 8
11 4 37 9 58 10 32 2 44 -4 75 -36 20 -20 45 -59 56 -86 29 -74 61 -120 90
-125 29 -6 58 13 125 78 38 37 41 44 31 68 -15 41 -12 86 10 156 11 35 18 65
16 67 -2 3 -58 6 -123 8 -102 2 -139 6 -163 15 -3 1 -8 2 -12 1 -5 0 -8 3 -8
9 0 5 -6 10 -14 10 -8 0 -36 25 -63 56 -26 31 -61 62 -76 71 -87 45 -227 201
-299 333 -30 56 -72 175 -88 255 -15 72 -19 234 -8 295 5 25 11 59 14 75 9 55
28 110 76 215 71 158 236 324 408 410 69 34 194 81 230 86 142 19 218 21 322
10 78 -9 180 -37 244 -67 27 -12 51 -23 54 -23 15 -3 118 -68 138 -86 12 -11
22 -19 22 -16 0 3 10 -5 23 -17 13 -12 32 -29 43 -38 19 -16 87 -95 114 -133
8 -12 19 -26 26 -33 6 -6 29 -48 50 -92 33 -69 42 -81 69 -87 89 -18 211 -82
297 -154 l36 -31 25 33 c56 75 40 102 -97 167 -46 22 -93 52 -104 66 -22 28
-27 90 -9 113 5 6 7 12 4 12 -3 0 5 24 18 53 59 134 35 173 -103 175 -41 0
-76 3 -79 5 -3 3 -11 3 -18 1 -22 -9 -74 24 -91 58 -11 21 -17 62 -19 122 -1
50 -6 100 -10 111 -21 50 -67 52 -179 7 -130 -53 -176 -32 -236 106 -59 133
-81 143 -165 72 -115 -95 -125 -103 -158 -110 -42 -9 -86 13 -160 84 -32 30
-72 59 -89 65 -27 10 -33 8 -58 -19z"/>
<path d="M1800 2933 c-42 -6 -164 -35 -175 -43 -5 -3 -31 -14 -57 -24 -149
-55 -331 -232 -402 -391 -9 -22 -22 -49 -27 -60 -45 -95 -58 -348 -25 -465 9
-30 18 -62 20 -71 20 -78 118 -232 197 -308 l43 -41 18 59 c20 67 79 140 133
165 23 11 36 24 37 39 2 34 3 39 21 81 9 21 17 40 17 42 0 7 36 50 77 91 39
39 118 92 145 97 7 2 20 6 28 9 31 13 78 20 155 23 77 3 80 4 96 33 19 36 66
98 94 126 34 33 115 97 115 90 0 -4 13 3 29 14 16 12 33 21 39 21 5 0 22 7 38
15 35 17 149 42 182 40 12 -1 22 1 22 3 0 20 -121 197 -145 214 -5 3 -27 22
-48 42 -101 93 -214 148 -392 192 -24 6 -200 11 -235 7z"/>
<path d="M2584 2379 c-2 -4 -12 -6 -22 -5 -33 6 -202 -58 -202 -76 0 -5 -6 -8
-13 -8 -15 0 -127 -104 -127 -119 0 -5 -8 -15 -17 -20 -10 -6 -14 -11 -9 -11
5 0 3 -7 -4 -15 -7 -8 -20 -30 -29 -47 l-16 -33 -95 -1 c-106 -1 -126 -5 -181
-34 -22 -11 -39 -17 -39 -14 0 2 -6 0 -12 -5 -106 -85 -142 -134 -162 -221
-17 -72 -17 -72 -53 -76 -15 -2 -33 -11 -40 -20 -7 -10 -13 -14 -13 -9 0 7
-19 -13 -47 -50 -14 -18 -33 -81 -33 -110 0 -81 42 -149 115 -188 40 -21 46
-21 845 -21 l805 0 58 28 c32 16 61 34 64 42 3 8 12 14 20 14 8 0 11 5 8 10
-3 6 0 13 8 16 14 5 31 39 28 57 -1 4 4 7 9 7 5 0 9 3 9 8 -1 4 0 9 1 12 9 25
9 103 -1 140 -27 97 -120 185 -207 194 -20 3 -40 5 -43 5 -4 1 -5 28 -3 60 2
33 0 63 -6 66 -5 3 -7 11 -4 18 5 14 -24 98 -52 145 -26 46 -94 132 -103 132
-5 0 -21 12 -36 26 -16 15 -33 27 -39 28 -6 1 -23 10 -37 19 -15 10 -36 19
-47 22 -11 2 -29 8 -39 13 -38 21 -229 37 -239 21z"/>
<path d="M1908 1197 c-16 -31 -42 -120 -41 -144 1 -54 4 -63 32 -91 28 -28 41
-32 89 -32 45 0 99 42 108 83 1 4 3 9 4 12 1 3 4 10 5 15 1 6 4 12 5 15 1 3 3
8 4 13 2 4 11 34 21 67 11 33 20 64 20 69 0 5 -53 10 -118 10 -106 1 -120 -1
-129 -17z"/>
<path d="M2269 1212 c-8 -1 -21 -23 -28 -48 -8 -25 -44 -139 -81 -253 -47
-144 -66 -217 -62 -237 9 -46 40 -81 85 -92 71 -19 150 36 150 104 0 8 4 14 9
14 4 0 7 3 6 8 -3 7 79 266 114 362 11 30 21 62 23 70 2 8 8 27 14 43 10 26 9
27 -22 28 -99 3 -195 4 -208 1z"/>
<path d="M2639 1212 c-9 -1 -23 -26 -33 -55 -10 -29 -20 -59 -24 -67 -18 -49
11 -129 55 -149 44 -20 96 -13 130 17 27 24 64 102 68 142 1 8 6 24 12 35 17
33 24 75 13 76 -29 3 -209 4 -221 1z"/>
</g>
</svg>
