<?xml version="1.0" standalone="no"?>
<!DOCTYPE svg PUBLIC "-//W3C//DTD SVG 20010904//EN"
 "http://www.w3.org/TR/2001/REC-SVG-20010904/DTD/svg10.dtd">
<svg version="1.0" xmlns="http://www.w3.org/2000/svg"
 width="480.000000pt" height="480.000000pt" viewBox="0 0 480.000000 480.000000"
 preserveAspectRatio="xMidYMid meet">
<metadata>
Created by potrace 1.11, written by Peter Selinger 2001-2013
</metadata>
<g transform="translate(0.000000,480.000000) scale(0.100000,-0.100000)"
fill="#000000" stroke="none">
<path d="M2011 4250 c-15 -17 -43 -67 -62 -112 -19 -46 -51 -101 -74 -126 -38
-42 -42 -44 -95 -43 -33 0 -71 8 -95 20 -103 49 -191 67 -227 45 -26 -17 -40
-72 -42 -179 -5 -192 -37 -225 -222 -231 -216 -6 -240 -41 -160 -234 69 -165
43 -225 -126 -296 -110 -46 -162 -91 -152 -132 8 -34 45 -84 105 -143 126
-124 125 -179 -8 -321 -93 -100 -114 -144 -85 -184 15 -22 101 -69 192 -107
20 -8 51 -28 69 -45 55 -50 54 -122 -5 -257 -21 -49 -25 -61 -29 -105 -6 -76
21 -90 195 -100 70 -4 137 -14 152 -21 51 -26 70 -78 73 -202 5 -213 39 -234
242 -153 158 63 217 37 285 -125 42 -101 90 -161 124 -155 37 7 83 39 141 98
51 52 53 55 42 88 -16 57 -12 120 15 199 14 41 23 77 21 79 -3 3 -71 6 -152 8
-82 1 -160 7 -175 13 -16 6 -28 8 -28 5 0 -11 -105 69 -125 95 -30 40 -98 100
-106 95 -4 -2 -9 -1 -11 3 -1 5 -25 26 -53 47 -118 92 -249 258 -313 396 -54
116 -66 145 -64 163 0 9 -4 17 -10 17 -6 0 -9 3 -6 6 3 3 -1 30 -8 60 -8 30
-12 59 -9 64 3 5 1 11 -5 15 -5 3 -8 19 -6 36 2 16 1 31 -3 33 -7 5 -5 176 3
254 3 29 13 80 22 115 9 34 17 67 18 72 16 79 104 254 175 348 120 159 280
290 456 371 44 21 87 39 95 41 8 2 35 10 60 18 25 9 65 19 90 22 25 4 67 11
94 16 64 12 238 12 307 -1 30 -5 70 -12 89 -15 118 -20 350 -121 440 -192 86
-68 143 -120 186 -169 51 -60 134 -169 134 -178 0 -2 16 -32 35 -65 19 -34 35
-64 35 -66 1 -2 4 -13 7 -24 5 -19 49 -41 82 -41 29 0 175 -65 232 -103 31
-20 77 -55 101 -77 l45 -39 22 20 c29 27 58 90 53 114 -6 27 -48 64 -91 82
-20 8 -68 30 -108 49 -125 59 -142 121 -78 277 77 190 54 224 -154 231 -192 6
-223 36 -228 220 -3 122 -14 169 -45 190 -27 19 -83 13 -155 -18 -80 -33 -153
-53 -186 -50 -45 4 -84 44 -123 124 -80 165 -98 189 -140 190 -27 0 -79 -35
-149 -102 -73 -70 -125 -98 -171 -92 -53 6 -82 25 -159 99 -67 64 -115 95
-150 95 -9 0 -29 -14 -44 -30z"/>
<path d="M2260 3667 c-3 -3 -23 -7 -45 -10 -83 -12 -102 -16 -165 -38 -182
-62 -349 -178 -467 -324 -50 -62 -123 -180 -123 -200 0 -7 -4 -16 -9 -19 -8
-6 -56 -146 -66 -196 -19 -92 -25 -274 -11 -357 20 -124 68 -252 134 -362 54
-89 60 -97 143 -184 l67 -69 8 33 c5 19 9 39 9 44 0 6 2 12 5 15 3 3 16 26 29
53 29 57 60 89 127 133 45 29 51 37 62 85 21 88 62 160 132 230 115 116 281
179 451 173 l66 -2 23 46 c13 26 29 54 37 62 31 34 53 64 53 72 0 4 6 8 14 8
8 0 16 7 20 15 13 34 145 116 281 175 44 20 149 42 228 48 17 2 17 4 -2 31
-12 16 -21 32 -21 36 0 3 -19 34 -41 68 -58 87 -202 225 -292 281 -72 45 -245
122 -277 124 -8 0 -44 7 -80 15 -60 13 -280 24 -290 14z"/>
<path d="M3265 2980 c-97 -15 -165 -29 -179 -38 -6 -4 -13 -7 -16 -8 -3 0 -23
-9 -45 -19 -22 -9 -40 -16 -41 -14 0 2 -8 -4 -18 -14 -10 -9 -22 -14 -28 -11
-7 4 -8 2 -4 -4 4 -7 3 -12 -1 -12 -27 0 -181 -153 -175 -172 1 -5 -1 -8 -5
-8 -5 0 -21 -29 -38 -65 l-30 -65 -40 5 c-56 7 -143 7 -185 -1 -90 -16 -213
-75 -258 -123 -13 -14 -29 -26 -35 -26 -7 0 -12 -5 -12 -11 0 -6 -8 -18 -17
-28 -10 -10 -18 -24 -18 -31 0 -8 -8 -19 -17 -24 -10 -6 -15 -11 -10 -11 4 0
1 -16 -8 -36 -8 -19 -17 -57 -21 -83 -6 -46 -8 -49 -48 -61 -61 -18 -112 -59
-138 -110 -13 -25 -25 -47 -28 -50 -11 -11 -15 -96 -7 -135 3 -11 7 -27 9 -35
1 -8 6 -17 10 -20 3 -3 8 -12 10 -20 4 -19 74 -90 88 -90 6 0 8 -4 5 -10 -3
-6 1 -7 9 -4 10 4 16 1 16 -7 0 -7 3 -9 7 -6 3 4 11 2 18 -3 12 -10 2015 -9
2045 1 8 2 21 8 28 13 7 4 16 6 19 2 3 -3 12 2 20 10 8 8 19 11 25 8 6 -4 8
-2 5 3 -6 10 15 25 38 27 6 1 10 8 10 16 1 8 7 14 15 12 8 -2 12 0 8 4 -4 4 6
24 23 45 16 21 32 46 34 56 2 10 8 30 13 44 14 34 6 199 -9 199 -4 0 -10 12
-13 26 -4 14 -18 37 -31 52 -13 14 -22 29 -19 34 3 4 -1 8 -9 8 -8 0 -17 6
-20 13 -2 7 -23 21 -45 32 -22 11 -38 24 -35 29 4 5 2 6 -4 3 -5 -3 -29 0 -54
7 -24 7 -52 12 -61 11 -15 -3 -17 7 -17 73 1 43 -2 91 -6 107 -4 17 -8 35 -9
40 -1 6 -5 16 -9 23 -5 6 -5 17 -2 22 3 6 1 10 -4 10 -6 0 -11 5 -11 11 0 16
-32 82 -47 97 -7 8 -10 18 -7 24 4 7 2 8 -4 4 -7 -4 -12 -3 -12 1 0 9 -65 88
-88 107 -8 6 -24 21 -37 32 -13 12 -26 19 -29 16 -3 -3 -6 0 -6 6 0 7 -6 12
-13 12 -7 0 -22 8 -33 18 -11 9 -26 18 -34 20 -8 2 -17 7 -20 10 -3 4 -14 9
-25 10 -11 2 -22 8 -23 13 -2 5 -7 7 -12 4 -5 -3 -21 0 -37 6 -15 7 -32 13
-38 14 -5 0 -37 4 -70 9 -33 4 -67 9 -75 10 -8 2 -37 0 -65 -4z"/>
<path d="M2360 1425 c-34 -101 -36 -147 -11 -189 26 -46 65 -69 118 -72 56 -3
105 17 128 53 16 24 89 235 97 278 3 18 -5 19 -149 20 l-153 1 -30 -91z"/>
<path d="M2730 1233 c-51 -155 -92 -286 -92 -290 0 -4 -3 -12 -7 -18 -14 -19
-12 -82 2 -117 38 -90 167 -116 236 -48 23 24 43 74 101 252 40 123 92 283
116 357 24 74 44 137 44 140 0 3 -69 6 -154 6 l-153 1 -93 -283z"/>
<path d="M3271 1490 c-54 -144 -61 -213 -27 -265 55 -83 195 -84 245 -1 15 25
50 124 95 271 6 20 2 20 -149 20 l-155 0 -9 -25z"/>
</g>
</svg>
